# xmcd
#
# Track frame offsets:
#	150
#	11202
#	24822
#	50637
#	73615
#	95032
#	110142
#	126402
#	143850
#	163242
#	175457
#	189095
#	218202
#
# Disc length: 3073 seconds
#
# Revision: 0
# Processed by: cddbd v1.4PL0 Copyright (c) Steve Scherf et al.
# Submitted via: EasyCDDAExtractor 4.6.0.1
#
DISCID=c30bff0d
DTITLE=Ron Hacker and the Hacksaws - Back Door Man
DYEAR=1900
DGENRE=Blues
TTITLE0=Big Brown Eyes
TTITLE1=Two Timin' Woman
TTITLE2=Back Door Man
TTITLE3=My Bad Boy
TTITLE4=Mambo for Albert
TTITLE5=Ax Sweet Mama
TTITLE6=Yank Told Me
TTITLE7=Hear Me Sing Like Elmore James
TTITLE8=I´m Gonna Miss You Like the Devil
TTITLE9=Hate to See You Go
TTITLE10=I Got Tattooed
TTITLE11=Diddley Widdley
TTITLE12=Come On In My Kitchen
EXTD=
EXTT0=
EXTT1=
EXTT2=
EXTT3=
EXTT4=
EXTT5=
EXTT6=
EXTT7=
EXTT8=
EXTT9=
EXTT10=
EXTT11=
EXTT12=
PLAYORDER=
